<?xml version="1.0" encoding="utf-8"?>
<!-- Generator: Adobe Illustrator 18.1.1, SVG Export Plug-In . SVG Version: 6.00 Build 0)  -->
<svg version="1.1" baseProfile="basic" id="Layer_1"
	 xmlns="http://www.w3.org/2000/svg" xmlns:xlink="http://www.w3.org/1999/xlink" x="0px" y="0px" viewBox="0 0 759.111 235.142"
	 xml:space="preserve">
<g>
	<g>
		<g>
			<path fill="#BCBEC0" d="M208.095,115.898l0.055,0.205C208.416,116.037,208.708,115.876,208.095,115.898z"/>
			<path fill="#FFA340" d="M200.13,29.23c-1.578-5.635-4.824-9.131-10.743-8.544c-7.525,0.746-14.906,1.172-22.477,1.427
				c-14.058,0.472-27.967,2.221-41.863,4.33c-26.809,4.069-53.083,11.682-78.987,19.553c-12.115,3.681-24.549,6.93-35.679,13.144
				c-3.723,2.079-9.361,4.382-10.1,8.933c-0.939,5.79,0.707,12.548,1.639,18.274c4.48,27.542,11.491,54.748,18.284,81.793
				c3.401,13.542,6.894,27.06,10.47,40.557c1.645,6.211,4.15,11.986,6.1,18.084c2.158,6.749,6.081,9.209,13.11,8.108
				c25.178-3.943,49.622-12.134,74.653-16.924c20.52-3.927,41.083-6.987,61.752-10.058c6.317-0.938,12.634-1.877,18.951-2.815
				c5.867-0.872,7.974-2.446,9.263-9.14c2.72-14.114,0.896-28.621-0.841-42.73c-1.542-12.523-2.099-24.879-5.511-37.12
				c2.907-0.714,2.479-10.416,2.359-12.945c-0.325-6.824-1.339-13.624-1.954-20.426C206.919,64.648,205.04,46.775,200.13,29.23
				C199.772,27.951,206.258,51.129,200.13,29.23z"/>
		</g>
	</g>
	<g>
		<path d="M294.807,54.506h-30.033c-0.859,0-1.585,0.301-2.182,0.899c-0.603,0.601-0.899,1.327-0.899,2.182v80.859
			c-0.858,5.647-3.169,10.227-6.931,13.734c-3.766,3.509-8.559,5.262-14.374,5.262c-6.506,0-11.596-2.138-15.275-6.418
			c-3.681-4.275-5.518-9.839-5.518-16.685V57.587c0-0.855-0.3-1.581-0.898-2.182c-0.603-0.597-1.328-0.899-2.182-0.899h-29.777
			c-0.858,0-1.584,0.301-2.181,0.899c-0.603,0.601-0.9,1.327-0.9,2.182v85.736c0,2.312,0.123,4.531,0.345,6.674h-80.946
			c-0.858,0-1.283-0.425-1.283-1.284V9.841c0-0.854-0.3-1.579-0.899-2.182c-0.602-0.597-1.327-0.898-2.181-0.898H62.242
			c-0.859,0-1.585,0.3-2.182,0.898c-0.603,0.603-0.899,1.328-0.899,2.182v173.526c0,0.859,0.296,1.585,0.899,2.182
			c0.597,0.603,1.323,0.9,2.182,0.9h122.7c0.855,0,1.58-0.297,2.182-0.9c0.597-0.597,0.899-1.323,0.899-2.182v-18.269
			c2.031,4.314,4.761,8.1,8.214,11.34c8.383,7.873,19.079,11.806,32.087,11.806c14.374,0,24.983-4.619,31.83-13.86
			c0.341-0.513,0.682-0.726,1.026-0.641c0.341,0.088,0.514,0.385,0.514,0.898v8.727c0,0.859,0.296,1.585,0.899,2.182
			c0.597,0.603,1.323,0.9,2.182,0.9h30.033c0.854,0,1.58-0.297,2.182-0.9c0.597-0.597,0.898-1.323,0.898-2.182V57.587
			c0-0.855-0.3-1.581-0.898-2.182C296.387,54.808,295.66,54.506,294.807,54.506z"/>
		<path d="M507.195,123.301c-7.019-5.648-16.601-10.268-28.748-13.862c-2.741-0.854-5.308-1.58-7.702-2.182
			c-2.398-0.597-4.536-1.154-6.416-1.668c-8.215-1.881-14.078-3.678-17.585-5.391c-3.509-1.708-5.262-4.275-5.262-7.701
			c0-3.593,1.797-6.417,5.392-8.47c3.593-2.054,8.214-3.082,13.86-3.082c6.33,0,11.424,1.284,15.275,3.851
			c3.849,2.567,5.775,5.735,5.775,9.498c0,0.858,0.297,1.584,0.898,2.182c0.597,0.601,1.325,0.898,2.182,0.898h27.466
			c0.856,0,1.581-0.297,2.182-0.898c0.599-0.598,0.9-1.324,0.9-2.182c0-8.041-2.27-15.229-6.803-21.563
			c-4.536-6.329-10.91-11.25-19.124-14.76c-8.214-3.505-17.799-5.262-28.75-5.262c-16.26,0-29.307,3.721-39.146,11.165
			c-7.798,5.899-12.492,13.443-14.111,22.618c-1.012-4.961-3.002-9.554-6.013-13.761c-4.536-6.329-10.91-11.25-19.124-14.76
			c-8.214-3.505-17.801-5.262-28.75-5.262c-16.26,0-29.307,3.721-39.146,11.165c-9.842,7.445-14.76,17.501-14.76,30.163
			c0,10.267,3.249,18.14,9.754,23.615c6.501,5.48,15.229,10.101,26.182,13.862c4.621,1.885,10.95,3.851,18.996,5.905
			c7.014,1.711,12.065,3.336,15.146,4.877c3.08,1.539,4.62,3.849,4.62,6.929c0,3.426-1.796,6.29-5.391,8.6
			c-3.593,2.31-8.301,3.465-14.118,3.465c-6.333,0-11.595-1.323-15.787-3.978c-4.196-2.651-6.289-5.861-6.289-9.626v-0.256
			c0-0.856-0.301-1.581-0.899-2.182c-0.601-0.597-1.327-0.9-2.182-0.9h-28.493c-0.858,0-1.584,0.302-2.182,0.9
			c-0.602,0.601-0.899,1.326-0.899,2.182v2.567c0,7.36,2.351,13.95,7.059,19.765c4.705,5.819,11.335,10.355,19.894,13.604
			c8.556,3.25,18.567,4.877,30.035,4.877c16.941,0,30.417-3.549,40.43-10.652c5.78-4.099,9.881-9.132,12.324-15.087
			c1.125,2.539,2.602,4.961,4.462,7.259c4.705,5.819,11.336,10.355,19.895,13.604c8.554,3.25,18.565,4.877,30.033,4.877
			c16.942,0,30.418-3.549,40.43-10.652c10.011-7.1,15.016-16.982,15.016-29.648C517.721,137.161,514.211,128.948,507.195,123.301z
			 M476.136,157.826c-3.595,2.31-8.303,3.465-14.119,3.465c-6.334,0-11.596-1.323-15.788-3.978
			c-4.195-2.651-6.288-5.861-6.288-9.626v-0.256c0-0.856-0.302-1.581-0.9-2.182c-0.601-0.597-1.326-0.9-2.182-0.9h-26.427
			c-0.711-9.029-4.169-16.047-10.382-21.048c-7.019-5.648-16.601-10.268-28.75-13.862c-2.739-0.854-5.306-1.58-7.701-2.182
			c-2.398-0.597-4.536-1.154-6.417-1.668c-8.214-1.881-14.078-3.678-17.584-5.391c-3.509-1.708-5.262-4.275-5.262-7.701
			c0-3.593,1.797-6.417,5.39-8.47c3.595-2.054,8.215-3.082,13.862-3.082c6.329,0,11.423,1.284,15.273,3.851
			c3.851,2.567,5.777,5.735,5.777,9.498c0,0.858,0.296,1.584,0.898,2.182c0.597,0.601,1.324,0.898,2.182,0.898h27.466
			c0.655,0,1.232-0.177,1.737-0.528c0.55,8.903,3.762,15.844,9.66,20.807c6.502,5.48,15.229,10.101,26.183,13.862
			c4.621,1.885,10.949,3.851,18.996,5.905c7.014,1.711,12.065,3.336,15.145,4.877c3.08,1.539,4.621,3.849,4.621,6.929
			C481.527,152.652,479.729,155.516,476.136,157.826z"/>
		<path d="M551.346,54.249h-30.033c-0.859,0-1.585,0.301-2.182,0.9c-0.601,0.601-0.898,1.327-0.898,2.182v126.036
			c0,0.859,0.297,1.585,0.898,2.182c0.597,0.603,1.323,0.9,2.182,0.9h30.033c0.856,0,1.581-0.297,2.182-0.9
			c0.597-0.597,0.9-1.323,0.9-2.182V57.331c0-0.855-0.302-1.581-0.9-2.182C552.928,54.55,552.202,54.249,551.346,54.249z"/>
		<path d="M656.205,67.085c-10.355-9.923-24.089-14.889-41.2-14.889c-13.521,0-25.199,3.594-35.038,10.781
			c-9.844,7.188-16.729,16.858-20.665,29.007c-2.567,7.188-3.849,15.49-3.849,24.899c0,13.862,1.796,25.073,5.39,33.627
			c4.448,11.98,11.764,21.306,21.947,27.979c10.18,6.675,22.629,10.013,37.349,10.013c10.608,0,20.363-1.926,29.263-5.777
			c8.897-3.849,16.172-9.28,21.819-16.299c0.682-1.028,1.028-1.709,1.028-2.054c0-0.682-0.43-1.453-1.284-2.31l-18.483-18.226
			c-0.685-0.682-1.283-1.026-1.796-1.026c-0.859,0-1.629,0.513-2.31,1.539c-6.334,8.728-14.978,13.18-25.927,13.349
			c-13.693,0-22.761-4.789-27.209-14.375c-1.372-3.421-2.31-6.843-2.823-10.267c-0.346-0.854,0-1.284,1.026-1.284h79.32
			c2.054,0,3.164-1.026,3.336-3.08c0.341-8.041,0-15.313-1.026-21.819C672.846,90.276,666.556,77.012,656.205,67.085z
			 M637.85,108.156h-44.408c-0.857,0-1.283-0.425-1.283-1.283c0.513-3.249,1.11-5.988,1.796-8.214
			c3.422-10.096,10.526-15.146,21.306-15.146c5.647,0,10.396,1.412,14.247,4.235c3.851,2.823,6.546,6.803,8.085,11.937
			c0-0.169,0.425,2.226,1.284,7.188C639.219,107.731,638.878,108.156,637.85,108.156z"/>
		<path d="M757.468,56.303c-3.593-2.395-8.47-3.593-14.632-3.593c-11.808,0-21.222,5.134-28.235,15.401
			c-0.174,0.345-0.43,0.429-0.771,0.256c-0.344-0.169-0.513-0.513-0.513-1.026v-9.754c0-0.855-0.3-1.581-0.898-2.182
			c-0.603-0.597-1.328-0.899-2.182-0.899h-30.033c-0.859,0-1.585,0.301-2.182,0.899c-0.603,0.601-0.9,1.327-0.9,2.182v125.78
			c0,0.859,0.297,1.585,0.9,2.182c0.597,0.603,1.323,0.9,2.182,0.9h30.033c0.854,0,1.579-0.297,2.182-0.9
			c0.597-0.597,0.898-1.323,0.898-2.182V113.29c0-6.675,2.138-12.021,6.418-16.044c4.275-4.019,9.498-6.289,15.658-6.803
			c2.395-0.341,4.276-0.513,5.648-0.513c3.421,0,6.416,0.429,8.983,1.283c2.223,0.858,3.422,0.257,3.595-1.796l5.39-29.263
			C759.35,58.272,758.837,56.989,757.468,56.303z"/>
	</g>
	<g>
		<path fill="#BCBEC0" d="M554.788,18.932l0.011,0.041C554.852,18.959,554.91,18.927,554.788,18.932z"/>
		<path fill="#FFA340" d="M553.206,1.71c-0.314-1.12-0.958-1.814-2.135-1.698c-1.495,0.148-2.962,0.233-4.466,0.284
			c-2.793,0.094-5.557,0.441-8.318,0.86c-5.327,0.808-10.548,2.321-15.695,3.885c-2.407,0.731-4.878,1.377-7.09,2.612
			c-0.74,0.413-1.86,0.871-2.007,1.775c-0.187,1.151,0.141,2.493,0.326,3.631c0.89,5.473,2.283,10.879,3.633,16.253
			c0.676,2.691,1.37,5.377,2.08,8.059c0.327,1.234,0.825,2.382,1.212,3.593c0.429,1.341,1.208,1.83,2.605,1.611
			c5.003-0.783,9.86-2.411,14.834-3.363c4.077-0.78,8.163-1.388,12.27-1.999c1.255-0.186,2.51-0.373,3.766-0.559
			c1.166-0.173,1.584-0.486,1.841-1.816c0.54-2.805,0.178-5.687-0.167-8.491c-0.306-2.488-0.417-4.944-1.095-7.376
			c0.578-0.142,0.493-2.07,0.469-2.572c-0.065-1.356-0.266-2.707-0.388-4.059C554.555,8.748,554.181,5.197,553.206,1.71
			C553.134,1.456,554.423,6.062,553.206,1.71z"/>
	</g>
</g>
</svg>
